<svg width="108" height="100" viewBox="0 0 108 100" fill="none" xmlns="http://www.w3.org/2000/svg">
<path fill-rule="evenodd" clip-rule="evenodd" d="M50 100C77.6142 100 100 77.6142 100 50C100 43.2327 98.6556 36.7794 96.2193 30.8927L60.8691 67.272C59.1169 69.0752 56.6903 70.0632 54.1769 69.9969C51.6635 69.9305 49.2924 68.8158 47.6378 66.9226L26.2234 42.4202C22.9524 38.6775 23.3348 32.9919 27.0774 29.7209C30.82 26.45 36.5057 26.8323 39.7766 30.575L54.765 47.7247L86.1348 15.4416C77.032 5.9262 64.2081 0 50 0C22.3858 0 0 22.3858 0 50C0 77.6142 22.3858 100 50 100Z" fill="#FF3147"/>
<path d="M33 36.4975L54.4145 61L103 11" stroke="#FF3147" stroke-width="10" stroke-linecap="round" stroke-linejoin="round"/>
</svg>
